<svg xmlns="http://www.w3.org/2000/svg" aria-hidden="true" style="position:absolute;width:0;height:0;overflow:hidden"><defs><symbol id="icon-menu-humburger" viewBox="0 0 47 32"><path d="M-.222 2.077C-.222.872.755-.105 1.96-.105h42.965a2.182 2.182 0 0 1 0 4.364H1.96A2.182 2.182 0 0 1-.222 2.077zm0 13.538c0-1.205.977-2.182 2.182-2.182h42.965a2.182 2.182 0 0 1 0 4.364H1.96a2.182 2.182 0 0 1-2.182-2.182zm0 13.539c0-1.205.977-2.182 2.182-2.182h42.965a2.182 2.182 0 0 1 0 4.364H1.96a2.182 2.182 0 0 1-2.182-2.182z"/></symbol></defs></svg>